# xmcd
#
# Track frame offsets:
#	150
#	21997
#	36750
#	47590
#	67772
#	78165
#	99750
#	119217
#	141832
#	162270
#	172300
#	183525
#	203072
#	224495
#	239437
#	249450
#	262982
#	286817
#	297915
#	310327
#
# Disc length: 4418 seconds
#
# Revision: 1
# Processed by: cddbd v1.5PL3 Copyright (c) Steve Scherf et al.
# Submitted via: CDex 1.50Beta5
#
DISCID=27114014
DTITLE=Various Artist - Nhk みんなのうた 小さな手紙
DYEAR=2000
DGENRE=
TTITLE0=舟木一夫/小さな手紙
TTITLE1=みなみらんぽう＆市毛良枝/山遊歌
TTITLE2=AKEMI/名もない花のように
TTITLE3=花＊花/赤い自転車
TTITLE4=楳図かずお/むかしトイレがこわかった！
TTITLE5=茂森あゆみ/はる なつ
TTITLE6=又紀仁美/ひまわり
TTITLE7=こうせつ＆イルカ/りんごの木の下で
TTITLE8=児玉 国弘/Ｗａになっておどろう 〜イレ アイエ〜
TTITLE9=山野さと子/おはようクレヨン
TTITLE10=水森亜土/いたずラッコ
TTITLE11=レイコ ヤマガタ/Yes, You
TTITLE12=オユンナ/だけど I Love You
TTITLE13=堀江美都子/さとうきび畑
TTITLE14=奈々瀬ひとみ/みずうみ
TTITLE15=ダ・カーポ/鳩の詩
TTITLE16=金子恵美/思い出に溶けながら
TTITLE17=狩野勇気夫/ぼくの目は猫の目
TTITLE18=石田よう子/やさしさの玉手箱
TTITLE19=サンドイッチ（大仁田厚、中島啓江、田中昌之）/この胸おいで・・・
EXTD=
EXTT0=
EXTT1=
EXTT2=
EXTT3=
EXTT4=
EXTT5=
EXTT6=
EXTT7=
EXTT8=
EXTT9=
EXTT10=
EXTT11=
EXTT12=
EXTT13=
EXTT14=
EXTT15=
EXTT16=
EXTT17=
EXTT18=
EXTT19=
PLAYORDER=
